<svg id="a" xmlns="http://www.w3.org/2000/svg" viewBox="0 0 70 55"><path d="M27.592 18.040 C 25.057 18.366,23.326 19.236,21.624 21.040 C 20.531 22.198,19.842 23.366,19.412 24.792 C 19.132 25.718,19.095 26.034,19.095 27.475 C 19.095 28.916,19.132 29.232,19.412 30.158 C 19.897 31.765,20.522 32.772,21.875 34.125 C 23.223 35.473,24.223 36.096,25.842 36.596 L 26.892 36.920 34.468 36.957 C 39.522 36.982,42.316 36.952,42.860 36.868 C 44.844 36.560,46.486 35.742,47.971 34.324 C 50.013 32.373,50.906 30.290,50.906 27.475 C 50.906 24.804,50.122 22.837,48.312 20.960 C 46.994 19.594,45.640 18.776,43.883 18.285 C 43.019 18.043,42.760 18.035,35.467 18.015 C 31.328 18.004,27.784 18.015,27.592 18.040 M43.458 20.232 C 45.439 20.812,47.272 22.343,48.149 24.150 C 48.732 25.350,48.883 26.036,48.883 27.475 C 48.883 28.914,48.732 29.600,48.149 30.800 C 47.475 32.189,46.190 33.480,44.799 34.167 C 43.100 35.005,42.944 35.017,34.514 34.973 C 27.754 34.937,27.070 34.916,26.483 34.722 C 23.954 33.888,21.908 31.793,21.292 29.404 C 21.035 28.409,21.035 26.541,21.292 25.546 C 21.898 23.199,24.105 20.915,26.367 20.294 C 27.416 20.007,28.415 19.975,35.525 20.001 C 42.032 20.024,42.829 20.048,43.458 20.232 M27.962 21.478 C 26.742 21.613,25.597 22.209,24.564 23.247 C 24.066 23.747,23.596 24.354,23.411 24.735 C 23.067 25.445,22.754 26.750,22.754 27.475 C 22.754 28.199,23.067 29.505,23.411 30.215 C 23.835 31.090,25.279 32.512,26.183 32.946 C 28.574 34.093,31.261 33.630,33.143 31.748 C 35.577 29.314,35.584 25.644,33.161 23.220 C 31.715 21.774,30.119 21.239,27.962 21.478 M30.625 23.795 C 31.370 24.161,32.189 24.980,32.555 25.725 C 32.801 26.226,32.842 26.472,32.842 27.475 C 32.842 28.486,32.803 28.719,32.550 29.225 C 31.836 30.653,30.445 31.522,28.875 31.522 C 27.688 31.522,26.862 31.179,26.017 30.333 C 25.164 29.480,24.850 28.711,24.850 27.472 C 24.850 25.705,25.854 24.248,27.506 23.621 C 28.222 23.349,29.909 23.443,30.625 23.795 " stroke="none" fill="black" fill-rule="evenodd"></path></svg>