<svg id="a" xmlns="http://www.w3.org/2000/svg" viewBox="0 0 70 55"><path d="M33.950 20.069 C 31.252 20.391,28.733 22.473,27.876 25.089 C 27.634 25.830,27.592 26.183,27.592 27.475 C 27.592 29.321,27.855 30.273,28.728 31.577 C 30.981 34.946,35.376 35.965,38.837 33.922 C 40.231 33.099,41.567 31.455,42.133 29.867 C 42.366 29.212,42.403 28.886,42.403 27.475 C 42.403 26.064,42.366 25.738,42.133 25.083 C 40.916 21.664,37.602 19.633,33.950 20.069 M37.356 22.546 C 39.310 23.512,40.483 25.361,40.483 27.475 C 40.483 29.809,39.001 31.888,36.762 32.693 C 35.853 33.020,34.147 33.020,33.238 32.693 C 30.499 31.708,28.972 28.857,29.696 26.079 C 30.157 24.308,31.483 22.904,33.307 22.254 C 33.762 22.092,34.178 22.052,35.181 22.077 C 36.406 22.107,36.515 22.130,37.356 22.546 " stroke="none" fill="black" fill-rule="evenodd"></path></svg>