<svg id="a" xmlns="http://www.w3.org/2000/svg" viewBox="0 0 70 55"><path d="M28.491 18.799 C 27.729 19.092,26.754 20.018,26.360 20.825 L 26.075 21.408 26.075 27.475 L 26.075 33.542 26.343 34.086 C 26.966 35.351,28.038 36.161,29.400 36.398 C 30.463 36.583,40.606 36.501,41.204 36.303 C 41.881 36.078,42.713 35.460,43.192 34.825 C 43.990 33.767,43.996 33.714,43.958 27.210 L 43.925 21.408 43.640 20.825 C 43.234 19.994,42.273 19.092,41.476 18.794 C 40.846 18.558,40.630 18.550,34.966 18.556 C 29.364 18.562,29.081 18.573,28.491 18.799 M41.168 20.872 C 41.384 21.026,41.658 21.367,41.778 21.630 C 41.979 22.074,41.995 22.490,41.995 27.475 C 41.995 32.460,41.979 32.876,41.778 33.320 C 41.518 33.892,41.052 34.249,40.355 34.409 C 39.672 34.567,30.328 34.567,29.645 34.409 C 28.948 34.249,28.482 33.892,28.222 33.320 C 28.021 32.876,28.005 32.460,28.005 27.475 C 28.005 22.490,28.021 22.074,28.222 21.630 C 28.422 21.191,28.848 20.784,29.283 20.616 C 29.380 20.579,32.005 20.558,35.117 20.570 L 40.775 20.592 41.168 20.872 " stroke="none" fill="black" fill-rule="evenodd"></path></svg>