<svg id="a" xmlns="http://www.w3.org/2000/svg" viewBox="0 0 70 55"><path d="M6.883 17.142 C 5.547 17.552,4.498 18.650,4.147 20.004 C 3.878 21.040,3.878 33.910,4.147 34.946 C 4.559 36.536,5.798 37.638,7.483 37.911 C 8.512 38.078,61.488 38.078,62.517 37.911 C 64.302 37.622,65.586 36.392,65.915 34.659 C 66.074 33.823,66.074 21.127,65.915 20.291 C 65.677 19.037,64.911 18.010,63.758 17.400 L 63.175 17.092 35.175 17.072 C 19.775 17.061,7.044 17.093,6.883 17.142 M63.079 19.319 C 63.260 19.453,63.526 19.737,63.671 19.949 L 63.933 20.335 63.933 27.475 L 63.933 34.615 63.671 35.001 C 63.526 35.213,63.260 35.497,63.079 35.631 L 62.750 35.875 35.000 35.875 L 7.250 35.875 6.921 35.631 C 6.740 35.497,6.474 35.213,6.329 35.001 L 6.067 34.615 6.067 27.510 C 6.067 19.874,6.050 20.097,6.668 19.520 C 6.819 19.379,7.073 19.212,7.233 19.147 C 7.425 19.071,16.950 19.038,35.137 19.053 L 62.750 19.075 63.079 19.319 M8.477 21.132 C 7.959 21.433,7.933 21.733,7.933 27.475 C 7.933 31.896,7.964 32.981,8.098 33.303 C 8.387 33.993,9.080 34.157,9.648 33.668 L 9.975 33.387 9.975 27.475 L 9.975 21.563 9.648 21.282 C 9.302 20.984,8.834 20.924,8.477 21.132 " stroke="none" fill="black" fill-rule="evenodd"></path></svg>