<svg id="a" viewBox="0 0 70 55" version="1.1" sodipodi:docname="link.svg" inkscape:version="1.1.2 (b8e25be833, 2022-02-05)" xmlns:inkscape="http://www.inkscape.org/namespaces/inkscape" xmlns:sodipodi="http://sodipodi.sourceforge.net/DTD/sodipodi-0.dtd" xmlns="http://www.w3.org/2000/svg" xmlns:svg="http://www.w3.org/2000/svg"><path d="M41.417 26.250 L 41.417 30.800 42.000 30.800 L 42.583 30.800 42.583 29.713 C 42.583 28.658,42.593 28.617,42.934 28.291 C 43.141 28.093,43.323 28.000,43.378 28.065 C 43.430 28.125,44.014 28.766,44.677 29.488 L 45.882 30.800 46.574 30.800 L 47.267 30.800 46.938 30.406 C 46.757 30.189,46.035 29.398,45.333 28.649 L 44.059 27.286 45.565 25.777 L 47.072 24.267 46.415 24.267 L 45.759 24.267 44.174 25.871 L 42.588 27.475 42.586 24.588 L 42.583 21.700 42.000 21.700 L 41.417 21.700 41.417 26.250 M30.450 22.639 L 30.450 23.229 31.063 23.194 L 31.675 23.158 31.711 22.604 L 31.746 22.050 31.098 22.050 L 30.450 22.050 30.450 22.639 M23.567 26.483 L 23.567 30.800 26.308 30.800 L 29.050 30.800 29.050 30.275 L 29.050 29.750 26.892 29.750 L 24.733 29.750 24.733 25.958 L 24.733 22.167 24.150 22.167 L 23.567 22.167 23.567 26.483 M35.650 24.550 L 34.883 24.949 34.883 24.608 C 34.883 24.281,34.861 24.267,34.358 24.267 L 33.833 24.267 33.833 27.533 L 33.833 30.800 34.358 30.800 L 34.883 30.800 34.883 28.355 L 34.883 25.910 35.429 25.590 C 36.051 25.226,37.134 25.085,37.560 25.313 C 38.060 25.581,38.150 26.071,38.150 28.521 L 38.150 30.800 38.733 30.800 L 39.317 30.800 39.317 28.658 C 39.317 26.350,39.204 25.426,38.867 24.967 C 38.177 24.024,36.961 23.867,35.650 24.550 M30.450 27.533 L 30.450 30.800 31.033 30.800 L 31.617 30.800 31.617 27.533 L 31.617 24.267 31.033 24.267 L 30.450 24.267 30.450 27.533 M21.341 33.824 C 20.902 34.264,20.890 34.741,21.308 35.159 L 21.615 35.467 34.987 35.463 C 49.143 35.459,48.565 35.482,48.864 34.920 C 49.083 34.509,49.023 34.188,48.659 33.824 L 48.318 33.483 35.000 33.483 L 21.682 33.483 21.341 33.824 " stroke="none" fill-rule="evenodd" fill="black"></path></svg>