<svg id="a" xmlns="http://www.w3.org/2000/svg" viewBox="0 0 70 55"><path d="M32.599 12.191 C 30.946 12.450,28.990 13.104,28.496 13.563 C 27.921 14.098,28.364 15.167,29.160 15.167 C 29.355 15.167,29.843 15.038,30.245 14.880 C 33.569 13.577,37.650 13.765,40.892 15.371 C 45.209 17.510,47.996 21.552,48.401 26.264 C 48.751 30.324,47.433 34.007,44.592 36.909 C 42.661 38.881,40.613 40.007,37.742 40.675 C 36.334 41.002,33.445 40.975,32.025 40.621 C 29.627 40.023,27.772 39.078,26.141 37.623 C 22.323 34.215,20.812 29.506,21.885 24.355 C 22.096 23.343,22.096 23.334,21.858 23.014 C 21.391 22.387,20.659 22.388,20.247 23.017 C 19.957 23.459,19.609 25.258,19.530 26.717 C 19.120 34.288,24.385 41.039,31.967 42.663 C 33.360 42.961,36.640 42.961,38.033 42.663 C 41.447 41.932,44.449 40.188,46.646 37.659 C 51.754 31.781,51.773 23.204,46.690 17.340 C 44.730 15.079,41.855 13.274,39.025 12.528 C 37.125 12.026,34.522 11.890,32.599 12.191 " stroke="none" fill-rule="evenodd" fill="black"></path></svg>