<svg id="a" viewBox="0 0 70 55" version="1.1" sodipodi:docname="tag.svg" inkscape:version="1.1.2 (b8e25be833, 2022-02-05)" xmlns:inkscape="http://www.inkscape.org/namespaces/inkscape" xmlns:sodipodi="http://sodipodi.sourceforge.net/DTD/sodipodi-0.dtd" xmlns="http://www.w3.org/2000/svg" xmlns:svg="http://www.w3.org/2000/svg"><path d="M16.023 16.104 C 14.910 16.326,13.837 17.202,13.311 18.317 L 13.008 18.958 13.008 27.475 L 13.008 35.992 13.311 36.633 C 13.697 37.452,14.465 38.220,15.283 38.606 L 15.925 38.908 35.000 38.908 L 54.075 38.908 54.717 38.606 C 55.070 38.439,55.590 38.072,55.872 37.789 C 56.155 37.506,56.523 36.986,56.689 36.633 L 56.992 35.992 56.992 27.475 L 56.992 18.958 56.689 18.317 C 56.303 17.498,55.535 16.730,54.717 16.344 L 54.075 16.042 35.292 16.024 C 24.961 16.015,16.290 16.050,16.023 16.104 M31.967 23.100 L 31.967 23.567 30.450 23.567 L 28.933 23.567 28.933 27.417 L 28.933 31.267 28.292 31.267 L 27.650 31.267 27.650 27.417 L 27.650 23.567 26.133 23.567 L 24.617 23.567 24.617 23.100 L 24.617 22.633 28.292 22.633 L 31.967 22.633 31.967 23.100 M36.868 24.977 C 37.769 25.480,37.852 25.785,37.896 28.729 L 37.933 31.267 37.341 31.267 C 36.793 31.267,36.750 31.246,36.750 30.983 L 36.750 30.700 36.079 31.043 C 34.497 31.851,32.990 31.479,32.485 30.156 C 32.243 29.523,32.309 28.691,32.635 28.249 C 33.143 27.564,33.902 27.234,35.233 27.120 C 36.690 26.995,36.750 26.975,36.750 26.617 C 36.750 26.018,36.006 25.549,35.058 25.552 C 34.716 25.553,33.509 25.807,33.104 25.963 C 32.926 26.031,32.900 25.966,32.900 25.455 L 32.900 24.868 33.513 24.749 C 33.849 24.684,34.629 24.645,35.245 24.663 C 36.171 24.690,36.451 24.745,36.868 24.977 M43.640 24.794 C 43.981 24.914,44.180 24.933,44.261 24.852 C 44.326 24.787,44.582 24.733,44.830 24.733 L 45.279 24.733 45.244 28.321 C 45.210 31.779,45.199 31.926,44.947 32.397 C 44.645 32.961,44.118 33.393,43.478 33.598 C 42.932 33.773,41.367 33.775,40.723 33.602 C 40.260 33.477,40.250 33.463,40.250 32.954 C 40.250 32.668,40.300 32.433,40.361 32.433 C 40.422 32.433,40.774 32.512,41.144 32.608 C 42.008 32.833,42.695 32.830,43.274 32.598 C 43.874 32.358,44.110 31.979,44.187 31.133 L 44.250 30.445 43.580 30.798 C 42.389 31.424,40.893 31.210,40.219 30.317 C 39.599 29.496,39.378 27.921,39.721 26.766 C 40.229 25.055,41.940 24.194,43.640 24.794 M42.029 25.632 C 41.590 25.717,40.986 26.384,40.832 26.953 C 40.752 27.250,40.714 27.843,40.745 28.329 C 40.808 29.313,41.019 29.690,41.696 30.027 C 42.080 30.217,42.218 30.228,42.781 30.115 C 43.136 30.044,43.605 29.876,43.822 29.742 L 44.217 29.498 44.217 27.703 L 44.217 25.909 43.612 25.730 C 43.026 25.555,42.573 25.528,42.029 25.632 M35.583 27.958 C 34.000 28.189,33.483 28.518,33.483 29.293 C 33.483 29.594,33.574 29.842,33.765 30.064 C 34.019 30.359,34.120 30.392,34.789 30.392 C 35.356 30.392,35.668 30.321,36.111 30.093 L 36.692 29.795 36.726 28.839 L 36.759 27.883 36.317 27.899 C 36.074 27.908,35.744 27.934,35.583 27.958 " stroke="none" fill-rule="evenodd" fill="black"></path></svg>