<svg id="a" xmlns="http://www.w3.org/2000/svg" viewBox="0 0 70 55"><path d="M6.883 8.159 C 5.799 8.491,4.696 9.485,4.286 10.498 L 4.025 11.142 3.994 27.173 C 3.966 41.365,3.983 43.285,4.144 43.914 C 4.555 45.524,5.835 46.666,7.498 46.907 C 8.459 47.046,61.541 47.046,62.502 46.907 C 63.429 46.773,64.142 46.415,64.807 45.750 C 65.422 45.135,65.750 44.511,65.915 43.642 C 66.077 42.786,66.077 12.164,65.915 11.308 C 65.677 10.054,64.911 9.027,63.758 8.417 L 63.175 8.108 35.175 8.089 C 19.775 8.078,7.044 8.109,6.883 8.159 M63.009 10.299 C 63.226 10.445,63.522 10.741,63.668 10.958 L 63.933 11.351 63.933 27.475 L 63.933 43.599 63.668 43.992 C 63.522 44.209,63.226 44.505,63.009 44.651 L 62.615 44.917 35.000 44.917 L 7.385 44.917 6.991 44.651 C 6.774 44.505,6.478 44.209,6.332 43.992 L 6.067 43.599 6.067 27.475 L 6.067 11.351 6.332 10.958 C 6.478 10.741,6.774 10.445,6.991 10.299 L 7.385 10.033 35.000 10.033 L 62.615 10.033 63.009 10.299 M8.477 12.149 C 7.960 12.449,7.933 12.756,7.934 18.400 C 7.934 21.716,7.980 23.906,8.055 24.176 C 8.274 24.964,9.039 25.209,9.648 24.685 L 9.975 24.404 9.975 18.492 L 9.975 12.580 9.648 12.298 C 9.302 12.001,8.834 11.941,8.477 12.149 " stroke="none" fill="black" fill-rule="evenodd"></path></svg>