<svg id="a" version="1.1" viewBox="0 0 70 55" xmlns="http://www.w3.org/2000/svg"><path d="M7.448 10.195 C 6.320 10.600,5.306 11.479,4.894 12.411 C 4.777 12.676,4.626 13.234,4.558 13.651 C 4.390 14.687,4.388 40.250,4.557 41.300 C 4.784 42.723,5.527 43.775,6.788 44.459 L 7.525 44.858 35.000 44.858 L 62.475 44.858 63.212 44.459 C 64.473 43.775,65.216 42.723,65.443 41.300 C 65.609 40.266,65.610 14.695,65.445 13.650 C 65.212 12.180,64.451 11.133,63.098 10.420 L 62.475 10.092 35.175 10.067 C 12.912 10.047,7.796 10.071,7.448 10.195 M62.251 12.238 C 62.807 12.490,63.184 12.929,63.355 13.520 C 63.438 13.806,63.466 18.377,63.443 27.717 L 63.408 41.492 63.095 41.965 C 62.907 42.250,62.579 42.537,62.271 42.686 L 61.760 42.933 35.000 42.933 L 8.240 42.933 7.729 42.686 C 7.421 42.537,7.093 42.250,6.905 41.965 L 6.592 41.492 6.557 27.717 C 6.534 18.377,6.562 13.806,6.645 13.520 C 6.816 12.929,7.193 12.490,7.749 12.238 C 8.208 12.030,9.185 12.022,35.000 12.022 C 60.815 12.022,61.792 12.030,62.251 12.238 M47.133 23.567 C 47.133 24.337,47.114 24.967,47.090 24.967 C 47.066 24.967,46.823 24.888,46.550 24.792 C 45.436 24.399,44.195 24.656,43.408 25.444 C 42.720 26.132,42.525 26.721,42.525 28.117 C 42.525 29.196,42.562 29.420,42.832 29.996 C 43.365 31.134,44.382 31.657,45.553 31.395 C 45.902 31.317,46.377 31.124,46.608 30.968 C 47.125 30.617,47.133 30.617,47.133 30.975 C 47.133 31.243,47.176 31.267,47.658 31.267 L 48.183 31.267 48.183 26.717 L 48.183 22.167 47.658 22.167 L 47.133 22.167 47.133 23.567 M25.109 22.524 C 22.910 22.912,21.708 24.693,21.836 27.374 C 21.946 29.675,23.185 31.086,25.359 31.389 C 26.341 31.525,27.410 31.360,28.453 30.911 L 29.050 30.655 29.050 29.955 L 29.050 29.255 28.788 29.448 C 28.173 29.900,27.038 30.358,26.387 30.417 C 24.965 30.546,23.889 29.923,23.319 28.642 C 23.108 28.169,23.060 27.847,23.062 26.950 C 23.067 25.219,23.549 24.248,24.661 23.730 C 25.727 23.234,27.240 23.405,28.350 24.148 C 28.639 24.341,28.914 24.499,28.963 24.500 C 29.011 24.500,29.050 24.213,29.050 23.862 C 29.050 23.146,29.028 23.124,27.933 22.747 C 27.152 22.478,25.919 22.381,25.109 22.524 M31.296 24.749 L 30.683 24.868 30.683 25.455 C 30.683 25.966,30.710 26.031,30.887 25.963 C 31.292 25.807,32.499 25.553,32.842 25.552 C 33.789 25.549,34.533 26.018,34.533 26.617 C 34.533 26.975,34.473 26.995,33.017 27.120 C 31.685 27.234,30.926 27.564,30.419 28.249 C 30.092 28.691,30.026 29.523,30.268 30.156 C 30.773 31.479,32.280 31.851,33.862 31.043 L 34.533 30.700 34.533 30.983 C 34.533 31.246,34.576 31.267,35.125 31.267 L 35.716 31.267 35.679 28.729 C 35.645 26.427,35.619 26.148,35.399 25.725 C 35.012 24.982,34.389 24.703,33.028 24.663 C 32.412 24.645,31.633 24.684,31.296 24.749 M37.800 28.000 L 37.800 31.267 38.325 31.267 L 38.850 31.267 38.850 28.963 L 38.850 26.658 39.404 26.308 C 39.881 26.007,40.092 25.953,40.921 25.917 L 41.883 25.876 41.883 25.372 C 41.883 24.911,41.855 24.862,41.543 24.794 C 41.356 24.753,41.002 24.756,40.756 24.800 C 40.270 24.889,39.261 25.356,39.143 25.548 C 38.985 25.804,38.850 25.644,38.850 25.200 L 38.850 24.733 38.325 24.733 L 37.800 24.733 37.800 28.000 M46.754 25.796 L 47.133 25.918 47.133 27.816 L 47.133 29.713 46.562 30.024 C 45.355 30.681,44.394 30.498,43.888 29.517 C 43.651 29.057,43.623 28.860,43.659 27.937 C 43.692 27.088,43.752 26.799,43.969 26.448 C 44.482 25.618,45.479 25.384,46.754 25.796 M34.509 28.839 L 34.475 29.795 33.895 30.093 C 33.452 30.321,33.139 30.392,32.572 30.392 C 31.903 30.392,31.802 30.359,31.548 30.064 C 31.156 29.608,31.164 28.951,31.568 28.547 C 31.912 28.203,32.937 27.941,34.101 27.899 L 34.543 27.883 34.509 28.839 " stroke="none" fill-rule="evenodd" fill="black"></path></svg>