<svg id="a" xmlns="http://www.w3.org/2000/svg" viewBox="0 0 70 55"><path d="M6.883 17.142 C 5.547 17.552,4.498 18.650,4.147 20.004 C 3.878 21.040,3.878 33.910,4.147 34.946 C 4.559 36.536,5.798 37.638,7.483 37.911 C 8.512 38.078,61.488 38.078,62.517 37.911 C 64.302 37.622,65.586 36.392,65.915 34.659 C 66.074 33.823,66.074 21.127,65.915 20.291 C 65.677 19.037,64.911 18.010,63.758 17.400 L 63.175 17.092 35.175 17.072 C 19.775 17.061,7.044 17.093,6.883 17.142 M63.079 19.319 C 63.260 19.453,63.526 19.737,63.671 19.949 L 63.933 20.335 63.933 27.475 L 63.933 34.615 63.671 35.001 C 63.526 35.213,63.260 35.497,63.079 35.631 L 62.750 35.875 35.000 35.875 L 7.250 35.875 6.921 35.631 C 6.740 35.497,6.474 35.213,6.329 35.001 L 6.067 34.615 6.067 27.510 C 6.067 19.874,6.050 20.097,6.668 19.520 C 6.819 19.379,7.073 19.212,7.233 19.147 C 7.425 19.071,16.950 19.038,35.137 19.053 L 62.750 19.075 63.079 19.319 M51.570 25.116 C 51.159 25.324,50.930 25.785,51.030 26.200 C 51.142 26.659,54.772 30.292,55.183 30.356 C 55.828 30.456,56.167 30.222,57.965 28.438 C 58.951 27.459,59.830 26.490,59.920 26.285 C 60.203 25.633,59.732 24.967,58.988 24.967 C 58.703 24.967,58.376 25.232,57.087 26.509 L 55.529 28.051 54.102 26.638 C 52.352 24.905,52.185 24.805,51.570 25.116 " stroke="none" fill-rule="evenodd" fill="black"></path></svg>