<svg xmlns="http://www.w3.org/2000/svg" id="a" version="1.1" viewBox="0 0 70 55"><path d="M7.448 10.195 C 6.320 10.600,5.306 11.479,4.894 12.411 C 4.777 12.676,4.626 13.234,4.558 13.651 C 4.390 14.687,4.388 40.250,4.557 41.300 C 4.784 42.723,5.527 43.775,6.788 44.459 L 7.525 44.858 35.000 44.858 L 62.475 44.858 63.212 44.459 C 64.473 43.775,65.216 42.723,65.443 41.300 C 65.609 40.266,65.610 14.695,65.445 13.650 C 65.212 12.180,64.451 11.133,63.098 10.420 L 62.475 10.092 35.175 10.067 C 12.912 10.047,7.796 10.071,7.448 10.195 M62.251 12.238 C 62.807 12.490,63.184 12.929,63.355 13.520 C 63.438 13.806,63.466 18.377,63.443 27.717 L 63.408 41.492 63.095 41.965 C 62.907 42.250,62.579 42.537,62.271 42.686 L 61.760 42.933 35.000 42.933 L 8.240 42.933 7.729 42.686 C 7.421 42.537,7.093 42.250,6.905 41.965 L 6.592 41.492 6.557 27.717 C 6.534 18.377,6.562 13.806,6.645 13.520 C 6.816 12.929,7.193 12.490,7.749 12.238 C 8.208 12.030,9.185 12.022,35.000 12.022 C 60.815 12.022,61.792 12.030,62.251 12.238 " stroke="none" fill-rule="evenodd" fill="black"></path></svg>