<svg viewBox="0 0 70 55" version="1.1" id="svg10" xmlns="http://www.w3.org/2000/svg"><path d="M8.867 10.135 C 6.790 10.240,6.059 10.644,5.413 12.043 L 5.075 12.775 5.075 27.417 L 5.075 42.058 5.342 42.718 C 5.635 43.444,6.319 44.160,7.100 44.558 L 7.574 44.800 35.025 44.799 L 62.475 44.798 63.072 44.456 C 63.797 44.040,64.537 43.225,64.737 42.621 C 64.850 42.281,64.908 39.443,64.983 30.683 C 65.037 24.363,65.096 17.609,65.114 15.675 L 65.147 12.158 64.842 11.697 C 64.473 11.139,63.451 10.438,62.753 10.264 C 62.188 10.123,11.500 10.002,8.867 10.135 M62.383 12.342 C 62.622 12.513,62.783 12.745,62.828 12.984 C 62.866 13.190,62.937 19.580,62.984 27.183 C 63.054 38.352,63.101 41.069,63.227 41.324 C 63.451 41.777,63.225 42.245,62.614 42.595 L 62.125 42.875 35.817 42.875 C 21.347 42.875,9.102 42.831,8.605 42.778 C 8.022 42.715,7.608 42.605,7.438 42.467 L 7.175 42.254 7.175 27.489 L 7.175 12.723 7.439 12.460 C 7.682 12.216,7.838 12.191,9.539 12.124 C 10.549 12.084,22.767 12.057,36.692 12.063 L 62.008 12.075 62.383 12.342 M16.100 26.598 L 16.100 30.938 18.354 30.898 C 20.597 30.859,20.613 30.856,21.296 30.507 C 23.176 29.545,23.212 27.031,21.358 26.195 L 20.889 25.984 21.339 25.534 C 22.369 24.503,22.120 23.036,20.825 22.504 C 20.609 22.416,19.636 22.341,18.288 22.309 L 16.100 22.258 16.100 26.598 M31.928 22.594 C 31.885 22.637,31.850 23.083,31.850 23.586 L 31.850 24.500 31.493 24.500 C 31.160 24.500,31.138 24.526,31.172 24.879 C 31.202 25.190,31.263 25.265,31.515 25.294 L 31.822 25.329 31.870 27.452 C 31.911 29.259,31.952 29.645,32.147 30.042 C 32.455 30.671,33.168 31.033,34.099 31.033 C 35.002 31.033,35.233 30.901,35.233 30.384 L 35.233 29.977 34.504 30.052 C 33.208 30.184,33.024 29.811,33.019 27.038 L 33.017 25.317 34.125 25.317 L 35.233 25.317 35.233 24.908 L 35.233 24.500 34.125 24.500 L 33.017 24.500 33.017 23.508 L 33.017 22.517 32.511 22.517 C 32.233 22.517,31.971 22.552,31.928 22.594 M36.633 23.502 L 36.633 24.500 36.218 24.500 C 35.819 24.500,35.803 24.515,35.838 24.879 C 35.871 25.213,35.921 25.263,36.254 25.295 L 36.633 25.331 36.636 27.220 C 36.638 28.259,36.693 29.345,36.760 29.633 C 36.980 30.590,37.643 31.033,38.854 31.033 C 39.790 31.033,40.017 30.905,40.017 30.376 L 40.017 29.960 39.325 30.041 C 37.926 30.203,37.800 29.973,37.800 27.245 L 37.800 25.317 38.908 25.317 L 40.017 25.317 40.017 24.908 L 40.017 24.500 38.913 24.500 L 37.809 24.500 37.776 23.538 L 37.742 22.575 37.188 22.539 L 36.633 22.504 36.633 23.502 M20.256 23.484 C 20.780 23.757,20.923 24.443,20.591 25.085 C 20.361 25.529,19.527 25.783,18.295 25.783 L 17.383 25.783 17.383 24.485 L 17.383 23.187 18.637 23.240 C 19.482 23.276,20.011 23.355,20.256 23.484 M42.641 24.541 C 41.484 25.080,40.894 26.174,40.896 27.775 C 40.897 28.534,40.951 28.767,41.275 29.424 C 41.486 29.854,41.820 30.318,42.034 30.482 C 42.475 30.818,43.377 31.150,43.850 31.150 C 44.443 31.150,45.329 30.811,45.809 30.399 C 47.285 29.136,47.219 26.044,45.690 24.841 C 44.925 24.239,43.574 24.106,42.641 24.541 M50.974 24.420 C 50.745 24.505,50.431 24.663,50.277 24.771 C 49.906 25.031,49.700 25.018,49.700 24.733 C 49.700 24.535,49.622 24.500,49.175 24.500 L 48.650 24.500 48.650 27.767 L 48.650 31.033 49.175 31.033 L 49.700 31.033 49.712 28.788 C 49.718 27.552,49.758 26.410,49.801 26.250 C 49.854 26.049,50.075 25.858,50.510 25.637 C 51.257 25.258,51.937 25.223,52.452 25.538 C 52.806 25.753,52.815 25.780,52.889 26.908 C 52.931 27.541,52.966 28.701,52.966 29.488 L 52.967 30.917 53.564 30.917 L 54.162 30.917 54.114 28.379 C 54.069 26.007,54.049 25.811,53.802 25.373 C 53.419 24.694,52.851 24.346,52.052 24.301 C 51.689 24.281,51.204 24.334,50.974 24.420 M24.269 26.804 C 24.271 28.071,24.320 29.314,24.378 29.566 C 24.703 30.967,26.298 31.517,27.767 30.735 C 28.120 30.547,28.444 30.377,28.487 30.356 C 28.530 30.336,28.583 30.441,28.604 30.589 C 28.636 30.821,28.718 30.863,29.196 30.894 L 29.750 30.929 29.750 27.715 L 29.750 24.500 29.167 24.500 L 28.583 24.500 28.583 26.934 L 28.583 29.368 27.913 29.668 C 26.974 30.087,26.673 30.142,26.196 29.985 C 25.484 29.750,25.400 29.436,25.339 26.804 L 25.287 24.500 24.777 24.500 L 24.267 24.500 24.269 26.804 M44.910 25.528 C 45.069 25.646,45.324 25.976,45.477 26.259 C 45.726 26.721,45.749 26.876,45.692 27.737 C 45.587 29.325,45.190 29.937,44.135 30.138 C 43.718 30.217,43.104 30.047,42.775 29.763 C 42.014 29.104,41.800 27.298,42.351 26.192 C 42.727 25.437,43.222 25.161,44.040 25.249 C 44.360 25.284,44.752 25.409,44.910 25.528 M20.864 27.015 C 21.062 27.132,21.285 27.376,21.359 27.556 C 21.542 27.997,21.441 29.106,21.193 29.380 C 20.892 29.712,20.158 29.881,18.705 29.953 L 17.383 30.018 17.383 28.351 L 17.383 26.684 18.944 26.743 C 20.166 26.790,20.582 26.849,20.864 27.015 " stroke="none" fill-rule="evenodd"></path></svg>