<svg id="a" version="1.1" viewBox="0 0 70 55" sodipodi:docname="flex.svg" inkscape:version="1.1.2 (b8e25be833, 2022-02-05)" xmlns:inkscape="http://www.inkscape.org/namespaces/inkscape" xmlns:sodipodi="http://sodipodi.sourceforge.net/DTD/sodipodi-0.dtd" xmlns="http://www.w3.org/2000/svg" xmlns:svg="http://www.w3.org/2000/svg"><path d="M7.448 10.195 C 6.320 10.600,5.306 11.479,4.894 12.411 C 4.777 12.676,4.626 13.234,4.558 13.651 C 4.390 14.687,4.388 40.250,4.557 41.300 C 4.784 42.723,5.527 43.775,6.788 44.459 L 7.525 44.858 35.000 44.858 L 62.475 44.858 63.212 44.459 C 64.473 43.775,65.216 42.723,65.443 41.300 C 65.609 40.266,65.610 14.695,65.445 13.650 C 65.212 12.180,64.451 11.133,63.098 10.420 L 62.475 10.092 35.175 10.067 C 12.912 10.047,7.796 10.071,7.448 10.195 M62.251 12.238 C 62.807 12.490,63.184 12.929,63.355 13.520 C 63.438 13.806,63.466 18.377,63.443 27.717 L 63.408 41.492 63.095 41.965 C 62.907 42.250,62.579 42.537,62.271 42.686 L 61.760 42.933 35.000 42.933 L 8.240 42.933 7.729 42.686 C 7.421 42.537,7.093 42.250,6.905 41.965 L 6.592 41.492 6.557 27.717 C 6.534 18.377,6.562 13.806,6.645 13.520 C 6.816 12.929,7.193 12.490,7.749 12.238 C 8.208 12.030,9.185 12.022,35.000 12.022 C 60.815 12.022,61.792 12.030,62.251 12.238 M30.333 26.717 L 30.333 31.267 30.917 31.267 L 31.500 31.267 31.500 26.717 L 31.500 22.167 30.917 22.167 L 30.333 22.167 30.333 26.717 M23.567 26.950 L 23.567 31.267 24.150 31.267 L 24.733 31.267 24.733 29.167 L 24.733 27.067 26.600 27.067 L 28.467 27.067 28.467 26.600 L 28.467 26.133 26.600 26.133 L 24.733 26.133 24.733 24.850 L 24.733 23.567 26.950 23.567 L 29.167 23.567 29.167 23.100 L 29.167 22.633 26.367 22.633 L 23.567 22.633 23.567 26.950 M35.322 24.733 C 34.470 24.989,33.746 25.707,33.409 26.627 C 33.126 27.400,33.157 28.865,33.472 29.577 C 33.945 30.645,34.658 31.169,35.919 31.372 C 36.710 31.499,37.743 31.381,38.507 31.075 C 38.956 30.896,38.967 30.878,38.967 30.311 C 38.967 29.992,38.927 29.751,38.879 29.775 C 36.691 30.897,34.867 30.563,34.422 28.959 C 34.172 28.061,34.021 28.117,36.692 28.117 L 39.083 28.117 39.083 27.431 C 39.083 25.653,38.087 24.613,36.400 24.629 C 35.983 24.633,35.498 24.680,35.322 24.733 M40.206 24.879 C 40.254 24.959,40.813 25.697,41.448 26.518 L 42.603 28.011 42.278 28.443 C 42.100 28.681,41.581 29.348,41.125 29.925 C 39.988 31.366,40.016 31.267,40.743 31.267 L 41.367 31.267 42.283 30.035 C 42.787 29.357,43.237 28.845,43.284 28.897 C 43.330 28.949,43.749 29.504,44.215 30.129 L 45.062 31.267 45.754 31.267 L 46.446 31.267 45.654 30.246 C 45.219 29.684,44.643 28.942,44.374 28.595 L 43.885 27.965 45.062 26.495 C 45.709 25.687,46.289 24.959,46.350 24.879 C 46.436 24.767,46.315 24.733,45.817 24.733 L 45.172 24.733 44.264 25.954 C 43.671 26.752,43.313 27.139,43.232 27.071 C 43.164 27.014,42.741 26.466,42.292 25.854 L 41.475 24.741 40.797 24.737 C 40.286 24.734,40.141 24.769,40.206 24.879 M37.390 25.803 C 37.729 26.070,38.033 26.665,38.033 27.063 C 38.033 27.291,37.965 27.300,36.167 27.300 C 34.961 27.300,34.300 27.257,34.300 27.180 C 34.300 26.867,34.656 26.269,35.045 25.927 C 35.440 25.581,35.540 25.550,36.272 25.550 C 36.912 25.550,37.132 25.600,37.390 25.803 " stroke="none" fill-rule="evenodd" fill="black"></path></svg>