<?xml version="1.0" encoding="UTF-8" standalone="no"?>
<svg
   id="icon"
   height="24"
   viewBox="0 0 24 24"
   width="24"
   version="1.1"
   xmlns="http://www.w3.org/2000/svg"
   xmlns:svg="http://www.w3.org/2000/svg">
  <defs
     id="defs21" />

  <path
     d="m 12.000571,12 c -0.321714,0 -0.571428,0.273656 -0.571428,0.624785 v 7.243752 L 8.9817143,17.193834 A 0.57028571,0.62353498 0 0 0 8.5714286,16.998276 C 8.3211429,16.998276 8,17.232571 8,17.643054 c 0,0.156196 0.053143,0.312392 0.16,0.429227 l 3.428571,3.748707 a 0.55714286,0.60916493 0 0 0 0.349715,0.172441 L 12,21.996529 c 0.142857,0.01999 0.294286,-0.04811 0.410286,-0.17494 l 3.428571,-3.748707 C 15.946286,17.955422 16,17.779233 16,17.64303 16,17.291276 15.731429,16.998252 15.428571,16.998252 a 0.56057143,0.61291364 0 0 0 -0.411428,0.195558 l -2.445714,2.674703 V 12.624785 C 12.571429,12.273656 12.321143,12 12,12 Z"
     fill="#fff"
     fill-rule="evenodd"
     id="path16"
     style="stroke-width:0.597511" />
  <path
     d="m 12,12.000571 c 0,-0.321714 -0.273656,-0.571428 -0.624785,-0.571428 H 4.1314632 L 6.8061659,8.9817143 A 0.62353496,0.57028571 0 0 0 7.0017239,8.5714286 C 7.0017239,8.3211429 6.7674289,8 6.3569459,8 6.2007499,8 6.0445539,8.0531429 5.9277189,8.16 L 2.1790116,11.588571 A 0.60916491,0.55714286 0 0 0 2.0065711,11.938286 L 2.0034472,12 c -0.019993,0.142857 0.048108,0.294286 0.1749396,0.410286 l 3.7487071,3.428571 C 6.0445539,15.946286 6.2207429,16 6.3569459,16 c 0.351754,0 0.644778,-0.268571 0.644778,-0.571429 A 0.61291362,0.56057143 0 0 0 6.8061659,15.017143 L 4.1314632,12.571429 H 11.375215 C 11.726344,12.571429 12,12.321143 12,12 Z"
     fill="#fff"
     fill-rule="evenodd"
     id="path103"
     style="stroke-width:0.597511" />
  <path
     d="m 11.999429,12 c 0.321714,0 0.571428,-0.273651 0.571428,-0.624784 V 4.1314626 l 2.447429,2.6747033 A 0.57028571,0.623535 0 0 0 15.428571,7.001724 C 15.678857,7.001724 16,6.7674289 16,6.3569459 16,6.2007498 15.946856,6.0445539 15.84,5.9277188 L 12.411429,2.1790114 A 0.55714286,0.60916494 0 0 0 12.061714,2.0065704 L 12,2.0034464 c -0.142857,-0.01999 -0.294286,0.04811 -0.410286,0.1749401 L 8.1611429,5.9270949 C 8.0537143,6.0445539 8,6.2207428 8,6.3569459 8,6.7086999 8.2685714,7.001724 8.5714286,7.001724 A 0.56057143,0.61291369 0 0 0 8.9828571,6.8061659 L 11.428571,4.1314626 V 11.375216 C 11.428571,11.726349 11.678857,12 12,12 Z"
     fill="#fff"
     fill-rule="evenodd"
     id="path105"
     style="stroke-width:0.597511" />
  <path
     d="m 12,11.999428 c 0,0.321716 0.273656,0.571428 0.624785,0.571428 h 7.243753 l -2.674704,2.447429 a 0.62353501,0.57028572 0 0 0 -0.195557,0.410287 c 0,0.250284 0.234295,0.571428 0.644778,0.571428 0.156196,0 0.312392,-0.05316 0.429227,-0.16 l 3.748707,-3.428572 a 0.60916496,0.55714285 0 0 0 0.17244,-0.349713 L 21.996529,12 c 0.01999,-0.142856 -0.04811,-0.294285 -0.174941,-0.410285 L 18.072906,8.1611428 C 17.955447,8.0537144 17.779258,8 17.643055,8 17.2913,8 16.998277,8.2685715 16.998277,8.5714285 a 0.61291367,0.56057144 0 0 0 0.195557,0.4114287 l 2.674704,2.4457148 H 12.624785 C 12.273656,11.428572 12,11.678856 12,12 Z"
     fill="#fff"
     fill-rule="evenodd"
     id="path107"
     style="stroke-width:0.59751" />
</svg>
